<svg width="224" height="64" viewBox="0 0 224 64" fill="none" xmlns="http://www.w3.org/2000/svg">
<path d="M89.781 42.0993H86.6079V26.8835H89.781V42.0993ZM89.777 24.6356H86.6117V21.5732H89.777V24.6356Z" fill="#050038"/>
<path d="M108.083 26.8833L103.664 40.0266C102.904 42.1759 101.55 42.4517 100.454 42.4517C98.8264 42.4517 97.8462 41.7036 97.2687 40.0304L93.5858 29.1156H92.1284V26.8833H95.9299L99.7256 39.1014C99.8915 39.6228 99.9938 39.935 100.454 39.935C100.932 39.935 101.027 39.6179 101.181 39.1014L105.054 26.8833H108.083Z" fill="#050038"/>
<path d="M115.897 39.9474C118.353 39.9474 119.875 38.0901 119.875 35.8626V33.4722C119.875 31.2427 118.366 29.3855 115.897 29.3855C113.297 29.3855 111.921 31.2427 111.921 33.4722V35.8626C111.921 38.0901 113.356 39.9474 115.897 39.9474ZM115.897 26.8833C120.003 26.8833 122.866 29.5916 122.866 33.4722V35.8626C122.866 39.7384 120.003 42.4517 115.897 42.4517C111.793 42.4517 108.924 39.7384 108.924 35.8626V33.4722C108.924 29.5916 111.793 26.8833 115.897 26.8833Z" fill="#050038"/>
<path d="M148.195 27.3687C146.614 26.9621 144.144 26.6672 142.319 26.6672C138.154 26.6672 135.568 29.2946 135.568 33.53V35.1974C135.568 39.4286 138.154 42.096 142.319 42.096C142.416 42.096 143.156 42.0993 143.493 42.0659V39.5116C143.365 39.5116 142.414 39.5455 142.319 39.5455C140.053 39.5455 138.529 37.7979 138.529 35.1973V33.5299C138.529 30.9293 140.053 29.1827 142.319 29.1827C143.345 29.1827 144.893 29.2657 145.427 29.3784L145.597 29.4151L145.6 42.0988H148.771V27.8959C148.771 27.6251 148.771 27.521 148.195 27.3687" fill="#050038"/>
<path d="M151.828 42.0991H155V21.5732H151.828V42.0991Z" fill="#050038"/>
<path d="M75.5672 21.5731H70V42.0962H73.2994V24.4263H75.2338C75.6443 24.4295 75.9942 24.4465 76.3451 24.4531C79.205 24.5084 80.6046 25.6428 80.6046 27.8664C80.6046 27.956 80.6104 28.0147 80.6104 28.1072C80.6104 30.1642 79.4805 31.5292 76.3626 31.5292C76.0646 31.5292 75.7582 31.5226 75.4411 31.5251C75.442 32.3117 75.4381 33.7709 75.4363 34.2837C75.7582 34.2992 76.059 34.3126 76.3674 34.3126C80.8416 34.3126 84.0011 32.5535 84.0011 28.138C84.0011 28.0513 83.9966 27.9608 83.9966 27.8721C83.9966 23.2954 80.5544 21.573 75.5673 21.573" fill="#050038"/>
<path d="M128.499 23.603V26.8833H133.666V29.3411H128.499V38.2069C128.499 39.5977 129.388 39.6353 130.676 39.6353H133.668V42.0962H129.619C126.626 42.0962 125.291 40.8981 125.291 38.2069V24.0435L128.499 23.603Z" fill="#050038"/>
</svg>
